<svg height="58" viewBox="0 0 58 58" width="58" xmlns="http://www.w3.org/2000/svg" xmlns:xlink="http://www.w3.org/1999/xlink"><defs><circle id="a" cx="42" cy="42" r="42"/><filter id="b" height="200%" width="200%" x="-50%" y="-50%"><feOffset dx="8" dy="10" in="SourceAlpha" result="shadowOffsetOuter1"/><feGaussianBlur in="shadowOffsetOuter1" result="shadowBlurOuter1" stdDeviation="10"/><feColorMatrix in="shadowBlurOuter1" values="0 0 0 0 0.180392157 0 0 0 0 0.239215686 0 0 0 0 0.28627451 0 0 0 0.2 0"/></filter></defs><g fill="none" fill-rule="evenodd" transform="translate(-12 -12)"><use fill="#000" filter="url(#b)" xlink:href="#a"/><use fill="#fff" xlink:href="#a"/><g transform="translate(28 23)"><path d="m-5.8 24h-.14545455l-3.05454545-4 3.05454545-4h15.69533518c1.60013817-4.0973569 5.58615447-7 10.25011937-7 6.0751322 0 11 4.9248678 11 11s-4.9248678 11-11 11c-4.6639649 0-8.6499812-2.9026431-10.25011937-7h-6.64988063l-.6-1.5-3.5 1.5-2-2z" stroke="#aa79db" stroke-linejoin="round" stroke-width="2" transform="matrix(0 -1 1 0 -9 31)"/><path d="m24.6291866 15.9723323 3.7818355 3.7818355-.9110221 2.0240068 3.2885822.3535534.7071068 3.5355339h2.8284271l1.767767 1.7677669-.7071068 4.9497475-4.9497475.7071068-10.5554534-10.5554534c2.3479019-1.4565898 4.0873977-3.8009144 4.7496112-6.5640974z" stroke="#aa79db" stroke-linejoin="round" stroke-width="2"/><circle cx="11" cy="10" fill="#aa79db" r="3"/></g></g></svg>