<svg height="44" viewBox="0 0 29 44" width="29" xmlns="http://www.w3.org/2000/svg"><g fill="none" fill-rule="evenodd" transform="translate(-15 -5)"><path d="m38.902303 31.1396078-3.9144981 7.9638405h-10.9756098l-3.9524501-7.9920927h.0126692c-2.5953448-2.9083173-4.0724142-7.0785956-4.0724142-11.7111952 0-8.7891667 5.3167565-12.88291902 13.5-12.88291902s13.5 4.09375232 13.5 12.88291902c0 4.6476215-1.4866642 8.8299187-4.097697 11.7394474z" stroke="#02b3e4" stroke-linejoin="round" stroke-width="2"/><path d="m29.8463135 38.1724138-.6990257.0167909-1.9070534-8.3961013h4.5294189zm-4.8245476-9.1171513 2.3333333 10.2413793c.0980072.4301697.5059198.737841.9782341.737841h2.3333334c.4723143 0 .8802269-.3076713.9782341-.737841l2.3333333-10.2413793c.1319306-.5790646-.3424372-1.124228-.9782341-1.124228h-7c-.6357969 0-1.1101647.5451634-.9782341 1.124228zm9.9782341 13.7723237c.5522847 0 1-.4168383 1-.9310345 0-.5141961-.4477153-.9310345-1-.9310345h-10c-.5522847 0-1 .4168384-1 .9310345 0 .5141962.4477153.9310345 1 .9310345zm0 2.7931035c.5522847 0 1-.4168384 1-.9310345 0-.5141962-.4477153-.9310345-1-.9310345h-10c-.5522847 0-1 .4168383-1 .9310345 0 .5141961.4477153.9310345 1 .9310345zm-3 2.7931034c.5522847 0 1-.4168383 1-.9310345 0-.5141961-.4477153-.9310345-1-.9310345h-4c-.5522847 0-1 .4168384-1 .9310345 0 .5141962.4477153.9310345 1 .9310345z" fill="#02b3e4"/></g></svg>