<svg height="29" viewBox="0 0 60 29" width="60" xmlns="http://www.w3.org/2000/svg"><g fill="none" fill-rule="evenodd"><path d="m17 12h38v38h-38z" fill="none"/><path d="m21-3h38v38h-38z" fill="none"/><path d="m43.1592951 0h-20.2438902c-1.4722829 0-2.3924597 1.47945205-1.6563182 2.46575342l10.1219451 14.79452058c.7361414.9863013 2.3924597.9863013 3.1286012 0l10.1219451-14.79452058c.9201768-.98630137 0-2.46575342-1.472283-2.46575342zm-16.9312536 3.28767123h13.6186171l-6.8093086 10.02739727zm-9.2761836 1.58587286c-.725929-1.16472545-2.3592691-1.16472545-3.085198 0l-13.61116757 21.63061561c-.72592894 1.1647255.18148224 2.4958403 1.63334011 2.4958403h27.22233516c1.4518578 0 2.359269-1.3311148 1.6333401-2.4958403zm8.8926294 20.79866891h-20.87045688l10.52596958-16.63893513zm33.8925946.8620336-10.1671348-14.7945206c-.739428-.9863013-2.403141-.9863013-3.142569 0l-10.1671347 14.7945206c-.739428 1.1506849.1848569 2.4657534 1.6637129 2.4657534h20.3342696c1.293999 0 2.2182839-1.4794521 1.478856-2.4657534zm-4.9911389-.8219178h-13.6794177l6.8397088-10.0273973z" fill="#15c26b" transform=""/></g></svg>