<svg height="30" viewBox="0 0 60 30" width="60" xmlns="http://www.w3.org/2000/svg"><g fill="none" fill-rule="evenodd" transform="translate(-3 -15)"><path d="m13 31h38v38h-38z" fill="none"/><path d="m62.7771952 43.2219403-.9902435-1.8154464-13.8634093-24.9211286c-.4951218-.825203-1.4853653-1.3203247-2.3105682-1.4853653 0 0 0 0-.1650406 0h-2.1455276-20.6300733-2.1455277s0 0-.1650406 0c-.8252029 0-1.8154464.6601623-2.3105682 1.4853653l-13.86340925 24.9211286-.99024352 1.8154464c-.49512176.825203 0 1.4853653.82520293 1.4853653h2.14552762 22.61056042c.8252029 0 1.980487-.6601623 2.4756088-1.4853653l1.6504058-2.9707305 1.6504059 2.9707305c.4951217.825203 1.4853653 1.4853653 2.4756088 1.4853653h22.6105604 2.1455276c1.1552841 0 1.4853653-.6601623.9902435-1.4853653zm-21.2902357-24.9211286-8.4170699 15.183734-8.4170699-15.183734zm-12.8731657 23.1056822h-20.46503278l12.87316578-22.9406416 10.2325164 18.4845457zm8.9121916 0-2.4756088-4.4560959 10.2325164-18.4845457 12.8731658 22.9406416z" fill="#02b3e4"/></g></svg>