<svg height="73" viewBox="0 0 74 73" width="74" xmlns="http://www.w3.org/2000/svg" xmlns:xlink="http://www.w3.org/1999/xlink"><linearGradient id="a"><stop offset="0" stop-color="#04daf4"/><stop offset="1" stop-color="#02b3e4"/></linearGradient><linearGradient id="b" x1="0%" x2="65.095%" xlink:href="#a" y1="125.354%" y2="-6.919%"/><linearGradient id="c" x1="69.849%" x2="1.848%" xlink:href="#a" y1="7.282%" y2="215.997%"/><g fill="#fff" fill-rule="evenodd" stroke-width="3" transform="matrix(-.70710678 -.70710678 -.70710678 .70710678 83.436615 29.560192)"><path d="m27.6416173 52.4227109c14.7530086 0 26.7126851-11.6265896 26.7126851-25.9687148 0-14.3421251-11.9596765-25.96871473-26.7126851-25.96871473s-26.71268511 11.62658963-26.71268511 25.96871473c0 14.3421252 11.95967651 25.9687148 26.71268511 25.9687148zm.7369017.8954729v6.2683105h.1842254v-6.2683105zm-3.5002829 6.2683105h7.3690166v23.282296h-7.3690166zm.921127 14.1484722h5.8215233v.1790946h-5.8215233z" stroke="url(#b)" stroke-linejoin="round"/><path d="m13.7711974 26.2139498c1.4495794-2.7138128 2.2686849-5.7969878 2.2686849-9.0661469 0-4.4365924-1.5085746-8.53065141-4.0542529-11.82383709" stroke="url(#c)" stroke-linecap="round" transform="matrix(-.70710678 -.70710678 .70710678 -.70710678 12.77132 36.828054)"/></g></svg>