<svg height="72" viewBox="0 0 111 72" width="111" xmlns="http://www.w3.org/2000/svg"><g fill="none" fill-rule="evenodd"><path d="m0 0h111v72h-111z"/><g transform="translate(0 21)"><path d="m109.701171 23.5607702c-2.17187 0-2.788453-.9336055-2.788453-2.3644248v-6.3336166h3.375954v-3.2103724h-3.375954v-4.2327393l-3.727824 1.66333793v12.90151727c0 3.2986924 2.289397 4.9627365 5.429676 4.9627365.469796 0 1.116527-.0301903 1.46924-.1166124l.910334-3.3271614c-.411056.0282483-.88063.0573352-1.292973.0573352zm-34.6586842-.2051531c-2.4948804 0-4.403148-2.0743945-4.403148-4.4954924 0-2.4232607 1.9082676-4.4954924 4.403148-4.4954924 2.1137952 0 4.0231284 2.0722317 4.0231284 4.4954924 0 2.4210979-1.9093332 4.4954924-4.0231284 4.4954924zm-.6542784-12.3760993c-3.9350832 0-7.4385096 3.2965738-7.4385096 8.1140083v12.9006345h3.682092v-6.9760442c1.2274824 1.1967559 2.4976776 1.7228359 4.31901 1.7228359 4.1109072 0 7.6462128-3.4146428 7.6462128-7.8808276 0-4.5241379-3.8344728-7.8806069-8.2088052-7.8806069zm-18.4732416 1.1278124c0-1.8401103 1.2333432-2.42348137 2.5835472-2.42348137 1.0870452 0 2.525472.81721377 3.4642212 1.80987587l2.4070572-2.80192001c-1.2029736-1.60516414-3.6395568-2.71465931-5.6362692-2.71465931-3.9936024 0-6.8711664 2.30603034-6.8711664 6.13018482 0 7.0926566 8.7796116 4.8444028 8.7796116 8.8150952 0 1.2245627-1.2034176 2.3055889-2.5826592 2.3055889-2.1736464 0-2.8786296-1.05088-3.876564-2.160331l-2.672436 2.7433048c1.7039832 2.072629 3.8173344 3.1239062 6.3428064 3.1239062 3.7874532 0 6.8412408-2.3351172 6.8412408-5.9842648 0-7.8806069-8.7793896-5.4284358-8.7793896-8.8432993zm-13.7390916 11.45344c-2.4951024 0-4.403148-2.0715696-4.403148-4.494389 0-2.4233048 1.9080456-4.4954924 4.403148-4.4954924 2.1141948 0 4.023306 2.0721876 4.023306 4.4954924 0 2.4228194-1.9091112 4.494389-4.023306 4.494389zm-.091464-12.3756579c-1.8206664 0-3.0915276.5252414-4.3188324 1.7228358v-6.94307307h-3.6822696v12.86744277c0 4.8163752 3.5029824 8.114891 7.4385096 8.114891 4.375176 0 8.2085832-3.3573517 8.2085832-7.8808276 0-4.4661848-3.534906-7.8812689-7.6459908-7.8812689zm-13.9153596 8.9278234c0 1.756469-1.4394924 3.1857876-3.2059908 3.1857876-1.7670756 0-3.2057688-1.4293186-3.2057688-3.1857876v-9.033622h-3.6703704v9.033622c0 3.7687614 3.0848232 6.8342731 6.8761392 6.8342731 3.7904724 0 6.8750736-3.0655117 6.8750736-6.8342731v-9.033622h-3.6690828zm-28.16904716-14.14806067h3.8702592v8.54783997h8.16262916v-8.54783997h3.875232v20.98233377h-3.875232v-8.7273931h-8.16262916v8.7273931h-3.8702592z" fill="#45535e"/><path d="m96.0800371 21.7245661c-.868686.959691-1.8672864 1.5508745-2.996112 1.5508745h-.186036c-.6447324 0-1.2754344-.1771697-1.8928608-.4993766-.6959256-.3547366-1.2249072-.8607779-1.6578516-1.5014841-.4474632-.6288773-.6902424-1.3155311-.6902424-2.0435421v-.221131c0-.7157407.138084-1.3944056.4862688-2.0353325.3722052-.7006455.8749908-1.2454841 1.543566-1.6786537.656454-.4302125 1.3575744-.6411918 2.1384816-.6411918h.0726384c.7080468 0 1.378398.1388138 2.0110092.4605793.6445548.3430842 1.1711388.811829 1.5793524 1.4284359.3965364.6168276.6323892 1.2821186.7082688 2.0069076.0119436.1506427.0180264.304949.0180264.4523696 0 .9836138-.3781104 1.8946207-1.1345088 2.7215449m3.9105744-6.6752c-.7058712-1.207349-1.6988328-2.1752497-2.9402124-2.9038787-.9276492-.5368496-1.8895752-.8775944-2.9735568-1.0239558v-3.83620415c1.0839816-.45753379 1.756686-1.47023448 1.756686-2.65171862 0-1.61032828-1.2990552-2.91531035-2.9176572-2.91531035-1.6198896 0-2.941722 1.30498207-2.941722 2.91531035 0 1.18148414.6339432 2.19418483 1.7179248 2.65171862v3.83792555c-.8671764.1246013-1.766454.3933572-2.5876764.8062676-1.6773876-1.2663614-7.1775264-5.42088832-10.3949724-7.84741522.0762792-.27347862.1350648-.55538759.1350648-.85278897 0-1.78361379-1.45299-3.22930758-3.24786-3.22930758s-3.247194 1.44569379-3.247194 3.22930758c0 1.78339311 1.4538336 3.22952828 3.2487036 3.22952828.6122316 0 1.1785092-.17800828 1.6671756-.4706869l.6790092.51204414 9.3300828 6.68274757c-.4932396.4502511-.952602.9622952-1.3201008 1.5368828-.7446768 1.1713324-1.1997324 2.4601158-1.1997324 3.8659531v.2932965c0 .98688.1886112 1.9185435.5098896 2.7937545.2829168.7642483.6965916 1.4590676 1.2088788 2.0872828l-3.0965004 3.085771c-.9165492-.3391117-1.9478724-.1142731-2.637582.575029-.4722384.4671558-.7367292 1.1027862-.7345092 1.7650758.000222.6665711.2614716 1.293109.7358412 1.7644138.4696188.4698483 1.1088456.7332635 1.775112.731498.666444.0016772 1.3058484-.2616938 1.775778-.731498.471972-.4671558.7365516-1.1023448.7349532-1.7644138 0-.2579862-.0400932-.5097048-.1155732-.7489324l3.200574-3.1821241c.4388052.3013296.9127308.5549903 1.4222208.7737379 1.0048164.4318897 2.1139728.69504 3.3278244.69504h.222444c1.3419456 0 2.607834-.3133793 3.7978428-.9543062 1.2539448-.6773848 2.2353624-1.6036634 2.9768424-2.7862069.7453427-1.1858096 1.1557317-2.4959117 1.1557317-3.93728v-.071989c0-1.4178869-.330202-2.726091-1.0237305-3.9245682" fill="#f9761f"/></g></g></svg>