<svg xmlns="http://www.w3.org/2000/svg" width="93" height="72" viewBox="0 0 93 72">
  <title>
    logo-color-facebook-blueprint
  </title>
  <g fill="none" transform="translate(0 14)">
    <g fill="#4267AC">
      <path d="M7.307 2.993c-1.08 0-1.411.5-1.411 1.58V6.32h2.906L8.47 9.146H5.896v8.648H2.408V9.146H.083v-2.91h2.325V4.573c0-2.91 1.163-4.407 4.4-4.407.665 0 1.496.083 1.994.083V2.91H7.307v.083zM9.05 11.64c0-3.242 1.496-5.653 4.734-5.653 1.744 0 2.823.914 3.321 1.995V6.236h3.322v11.558h-3.322v-1.746c-.498 1.08-1.577 1.995-3.321 1.995-3.155 0-4.733-2.411-4.733-5.654v-.748zm3.488.832c0 1.746.665 2.827 2.242 2.827 1.412 0 2.16-1.08 2.16-2.66v-1.164c0-1.663-.748-2.661-2.16-2.661-1.66 0-2.242 1.164-2.242 2.827v.831zM27.65 6.07c1.33 0 2.658.25 3.322.748l-.747 2.495c-.498-.25-1.412-.5-2.325-.5-1.91 0-2.74 1.082-2.74 2.994v.665c0 1.83.83 2.994 2.74 2.994.913 0 1.827-.25 2.325-.5l.747 2.495c-.664.5-1.993.749-3.321.749-4.069 0-5.979-2.245-5.979-5.738v-.499c0-3.741 1.91-5.903 5.979-5.903zM31.47 12.472v-.997c0-3.243 1.827-5.405 5.647-5.405 3.57 0 5.148 2.162 5.148 5.405v1.829h-7.307c.083 1.58.747 2.245 2.74 2.245 1.329 0 2.657-.25 3.737-.665l.664 2.41c-.913.5-2.823.832-4.484.832-4.484-.083-6.144-2.245-6.144-5.654zm3.488-1.496h4.235v-.25c0-1.247-.498-2.245-1.993-2.245-1.66-.083-2.242.915-2.242 2.495zM55.219 12.39c0 3.242-1.578 5.653-4.733 5.653-1.744 0-2.99-.831-3.405-1.995v1.746H43.76V.499l3.487-.333V7.9c.499-.998 1.661-1.83 3.239-1.83 3.155 0 4.733 2.412 4.733 5.655v.665zm-3.488-.75c0-1.662-.664-2.826-2.325-2.826-1.411 0-2.242.998-2.242 2.66v1.248c0 1.663.748 2.66 2.242 2.66 1.661 0 2.325-1.247 2.325-2.827v-.914zM56.381 12.306v-.582c0-3.326 1.91-5.737 5.73-5.737 3.82 0 5.73 2.411 5.73 5.737v.582c0 3.326-1.91 5.737-5.73 5.737-3.903 0-5.73-2.411-5.73-5.737zm7.972-.831c0-1.497-.665-2.744-2.242-2.744-1.661 0-2.242 1.247-2.242 2.744v1.08c0 1.497.664 2.744 2.242 2.744 1.66 0 2.242-1.247 2.242-2.744v-1.08zM69.003 12.306v-.582c0-3.326 1.91-5.737 5.73-5.737 3.819 0 5.729 2.411 5.729 5.737v.582c0 3.326-1.91 5.737-5.73 5.737-3.903 0-5.73-2.411-5.73-5.737zm7.971-.831c0-1.497-.664-2.744-2.242-2.744-1.66 0-2.242 1.247-2.242 2.744v1.08c0 1.497.664 2.744 2.242 2.744 1.66 0 2.242-1.247 2.242-2.744v-1.08z"/>
      <polygon points="85.278 11.807 88.682 6.319 92.419 6.319 88.848 11.973 92.585 17.794 88.848 17.794 85.278 12.14 85.278 17.794 81.79 17.794 81.79 .499 85.278 .166"/>
    </g>
    <g fill="#4080FF" transform="translate(2.447 24.39)">
      <path d="M5.483 19.54c-.748 0-1.828-.17-2.575-.424l-2.16.425V1.02l2.16-.34v7.306c.83-.85 1.91-1.53 3.323-1.53 3.406 0 5.4 2.805 5.4 6.543 0 3.653-2.576 6.542-6.148 6.542zm.332-11.044c-1.163 0-2.077.425-2.907 1.19v7.051c.747.595 1.661.85 2.658.85 2.41 0 3.822-2.04 3.822-4.588 0-2.719-1.33-4.503-3.573-4.503z"/>
      <polygon points="13.708 19.116 13.708 1.02 15.867 .68 15.867 19.116"/>
      <path d="M20.852 6.797v7.731c0 2.124.748 2.889 2.326 2.889 1.412 0 2.576-.68 3.323-1.36v-9.26h2.16v12.319l-2.16.425v-1.784c-1.08 1.104-2.492 1.784-4.07 1.784-2.327 0-3.739-1.615-3.739-4.248V6.797h2.16zM32.981 13.339c.083 2.378 1.662 4.163 3.988 4.163 1.246 0 2.658-.34 3.572-1.02l.415 2.04c-1.08.679-2.492 1.019-4.07 1.019-3.656 0-6.065-2.634-6.065-6.457 0-3.993 2.575-6.712 5.899-6.712 2.907 0 4.569 1.87 4.569 4.843 0 .68-.083 1.444-.25 1.954l-8.058.085v.085zm6.23-1.785v-.17c0-1.869-.83-3.058-2.74-3.058-2.078 0-3.24 1.7-3.407 3.313l6.148-.085zM48.932 6.457c3.406 0 5.4 2.804 5.4 6.542s-2.493 6.627-6.148 6.627c-.748 0-1.828-.085-2.575-.34v6.202h-2.16V6.797l2.16-.34v1.53c.83-.85 1.91-1.53 3.323-1.53zm-3.406 10.195c.747.595 1.661.85 2.658.85 2.41 0 3.821-2.04 3.821-4.588 0-2.719-1.329-4.503-3.572-4.503-1.163 0-2.077.425-2.907 1.19v7.051zM58.568 19.116h-2.16V6.796l2.16-.34v2.21c.831-1.36 1.828-2.21 3.323-2.21.831 0 1.662.256 2.244.596l-.582 2.039c-.665-.425-1.33-.595-1.91-.595-1.164 0-2.244.85-3.158 2.549v8.07h.083zM66.71 4.078c-.997 0-1.412-.765-1.412-1.614 0-.85.415-1.614 1.412-1.614.997 0 1.412.764 1.412 1.614 0 .934-.415 1.614-1.412 1.614zm-1.08 15.038V6.796l2.16-.34v12.745h-2.16v-.085zM78.507 19.116v-7.731c0-2.124-.748-2.89-2.493-2.89-1.246 0-2.492.68-3.157 1.36v9.26h-2.16V6.798l2.16-.34v1.869c1.08-1.104 2.493-1.87 3.905-1.87 2.41 0 3.905 1.615 3.905 4.249V19.2h-2.16v-.085zM87.147 19.54c-2.327 0-3.573-1.189-3.49-3.823l.166-6.881-1.993-.17.083-1.36 1.994-.594.083-2.634h2.077l-.084 2.804h3.739l-.083 1.954H85.9l-.166 6.966c0 1.19.499 1.785 1.579 1.785.747 0 1.495-.17 2.16-.425l.415 1.954c-.914.255-1.828.425-2.741.425z"/>
    </g>
  </g>
</svg>
