<svg height="72" viewBox="0 0 150 72" width="150" xmlns="http://www.w3.org/2000/svg"><g fill="none" fill-rule="evenodd"><path d="m0 0h150v72h-150z"/><g fill="#000" transform="translate(0 21)"><path d="m42.444 18.169h.001l-.001-.002z"/><path d="m139.962369 23.5637269-.023069-.042308-.045693-.1460632.021063-.0440988c1.441776-2.982712 3.093404-4.6932747 4.531279-4.6932747h.014599c1.62321.0126476 2.745581 1.4789881 2.729756 3.5659576-.010587 1.393141-.621757 2.1952017-1.13229 2.6223107-.582639.4877729-1.358749.7671398-2.129174.7671398-1.899595-.0144385-3.203289-1.1115356-3.966471-2.0296634zm-.39307 11.2619791c-.23203.3100346-.555.4670666-.95966.4670666-.464284-.0035817-.813444-.1668815-1.050601-.4849748-.664997-.8928325-.477657-2.9899871.607492-6.7992715.129277-.454307.270256-.9116361.418702-1.3595633l.126157-.3798764.110777.3846892c1.264465 4.3957758 1.515887 7.1451224.747133 8.1719302zm-46.4751665-20.2505203c.0424609-.9493551.1216989-1.8738626.2349279-2.7475558.7318652-5.63266839 2.2609029-9.56641433 3.7183923-9.56641433h.006241c.6946422.00526052 1.0426878.5329909 1.034998 1.56808117-.0193916 2.54306724-1.6237667 6.18412706-4.7684355 10.82177466l-.2460725.3629756zm50.9989785 12.8480803.051042.0003358c3.060416 0 5.214331-2.1288297 5.237623-5.1771302.011479-1.5087605-.422491-2.8897016-1.221893-3.8881921-.845985-1.0563562-2.029875-1.6201267-3.424286-1.6308716l-.028196-.0002239c-1.881764 0-3.629124 1.4342179-5.34227 4.385031l-.136522.2347085-.087819-.2572056c-.43241-1.2646502-.817901-2.3180963-1.048149-2.9474553-.160816-.4400925-.23281-.6374178-.249304-.7011036-.081913-.3196602-.353952-.517657-.70991-.517657-.219215 0-.451691.0745426-.671908.2151215-.217988.1392357-.33991.3100346-.383597.5374679l-.011144.0340255c-1.714484 5.3702023-3.128509 7.9782984-4.325773 7.9785223-.173967-.0012312-.310599-.0590969-.412126-.1719181-.313498-.3485371-.2366-1.1767884-.129835-2.3234688.078235-.8415704.167169-1.7956264.130057-2.807548-.070656-1.9444878-1.130172-3.1131056-2.834069-3.1262009-2.165282-.0002239-3.56872 2.3151862-4.214995 3.6954558l-.19269.412111-.042906-.4534117c-.161263-1.7085481-.732089-3.7486205-2.534503-3.7623874-2.102315 0-3.704016 2.4781502-4.680728 4.5572848l-.262009.5571669.025744-.6155922c.116573-2.7735225.21197-4.4102142.283407-4.864857.071325-.4552025.03388-.7613197-.114566-.9360359-.140422-.164643-.40544-.2251948-.794498-.2002354-.673022.0427557-1.01739.4538593-1.535056 1.8330097-.850778 2.2651553-3.01606 7.5340647-4.744697 7.5340647-.342808-.0024623-.614402-.1200964-.813221-.3487609-.725179-.8353026-.435196-3.0910562-.03388-6.2135636l.030314-.2361635c.189681-1.4784286-.134293-1.7937237-.933137-1.9415778-.086259-.0160054-.167837-.024064-.242952-.024064-.638696 0-.93726.6141371-1.533718 2.3204467-1.061077 3.037108-2.425397 6.2315837-4.021971 6.2315837-.058175 0-.116461-.0048129-.174413-.0145504-.845763-.1440486-.827374-1.4046694-.803859-3.0003963.012482-.8632841.02697-1.8416279-.105762-2.7251706-.238383-1.5850939-1.1685106-2.5755257-2.4274034-2.5853752-2.5132164-.0003358-4.2078626 3.2319709-4.9962309 5.1584386l-.1785363.4360631-.0592892-.4677381c-.1058736-.8351907-.2449581-2.1593855-.3056961-3.72534l-.0016717-.0461135.0286416-.0363759c4.7031282-5.9456131 6.8131333-10.23617863 6.8412177-13.91215934.0180542-2.34865204-1.0607421-3.75914161-2.8856686-3.77335619-1.3338959 0-4.5073177 1.11612458-5.6097405 11.45628233-.2045032 1.9172898-.3169521 3.8832674-.3337805 5.8433129l-.0003343.0381667-.021732.0313392c-2.1512401 3.1279918-6.7437025 8.5080436-11.2397642 8.5080436-4.0620914 0-7.3031609-3.3002457-7.3031609-9.1265458 0-7.81029778 5.5049814-12.60564892 9.6472024-12.60564892l.0341024.00022386c.90026.00671555 1.6721342.25933219 2.2325956.73020424.5817476.48889212.885772 1.17432603.8796425 1.98153526-.0080241 1.0785175-.357407 1.6323266-.6956453 2.16800372-.0868163.13778073-.1732984.27477797-.2525364.41983387-.0799067.14628709-.1527923.35905813-.0465844.54104957.1087712.1863565.3868287.303431.7257357.3061172.9862962 0 2.4773308-1.43332245 2.4938248-3.59349136.0171626-2.2605664-1.8790893-4.5899672-5.2621408-4.5899672-5.1192672 0-12.0134217 5.64822611-12.0134217 14.80241756 0 6.4753582 4.0421426 10.9507133 9.518371 10.9507133 3.8862298 0 7.730333-2.7938931 11.1343364-7.4614249l.2085153-.2831724.0150452.3521187c.0721055 1.7076527.1958104 3.0545684.2860816 4.0376132.0580633.6319333.1001899 1.0883669.0982953 1.3402001-.0043464.5523541.0855904.9349166.274937 1.1700728.1893466.235492.4902505.3469702.9463985.3503279.7647418 0 .9175341-.5239249 1.2203326-1.8145419l.0871507-.3687956c.3761299-1.5651711 1.7658602-6.6730192 3.8563623-6.6730192.3413587.0026862.604371.1049864.7914887.3041025.4618318.4919141.4113468 1.5007018.3528377 2.6694315-.0365543.729197-.0743344 1.4830176-.0014488 2.2168034.1969249 1.9810876 1.048594 2.9499177 2.604156 2.96167 1.597577.0002238 3.264139-1.7273517 4.143336-3.3330399l.166166-.3033191.064415.3400307c.162488.8591429.88867 3.6802339 3.161943 3.6802339 2.060523 0 3.827275-2.1795321 5.765096-6.6632816l.253205-.5860438-.015379.6387608c-.041458 1.6993702-.132844 3.7744755-.133401 5.3789326-.00078 1.240698.123928 1.7143682.694977 1.7143682.040566 0 .084141.0062679.129277.0062679.548091 0 .920209-.329174 1.105543-.9783439 1.457378-5.1026995 2.717608-7.4789972 3.965691-7.4789972 1.222673.0091779 1.337351 2.2537389 1.435534 6.2200552l.006241.2776881c.029756 1.3875447.078904 2.0008984.937818 2.0077259.650732 0 .812663-.513292 1.149341-1.778166.064193-.2417598.134627-.5060168.216428-.7913158 1.177203-4.1017466 2.152912-5.7747023 3.367784-5.7747023 1.03979.0080587 1.097742 1.0847853 1.116687 1.4386949.040455.7579618-.037223 1.5506207-.112337 2.316977-.069877.7116246-.141759 1.4472013-.114566 2.132859.063635 1.6042332.938151 2.4939318 2.462842 2.505684 1.978499.0002239 3.764866-2.3235806 5.328897-6.9064965l.10866-.3192125.123705.3138401c.283853.7194593.653519 1.6946693.995881 2.8580266l.01315.0444345-.018946.0421961c-1.514438 3.3776983-2.58287 7.1403096-2.598138 9.1497144-.020172 2.6478298 1.172522 4.3682421 3.038795 4.3826805l.032208.0002239c1.015272 0 3.382049-.409089 3.42763-4.1981148.018612-1.5528593-.346374-3.7487325-1.084814-6.5267321l-.084588-.3179814.272931.1819914c.942053.6281279 2.005023.964577 3.073678.9727476zm.352894-8.6572789v-.003174zm-100.0092058.8811073c-.6661121 2.6923764-1.943282 5.9403526-4.2460886 6.1262615-.0643042.0048128-.1269368.0078348-.1875634.0078348-.9549799 0-1.4905888-.6281279-1.5916703-1.8666994-.1267139-1.5505088.5389524-3.3665057 1.6952035-4.6270146.7363231-.8027322 1.566595-1.2447274 2.3375777-1.2447274h.0157139c.9740371.0076109 1.6565317.7928827 1.9704748 1.5249897l.016494.0385025zm21.115988-15.05201219.0327651-.00067155c.217208 0 .407892.10946348.5670367.32570422.7556032 1.0261362.7667478 4.77083938-.5327114 9.03185652-.7427869 2.4350588-1.7413421 4.7354708-2.8878974 6.652201l-.1827713.3053337-.0464729-.3534618c-.134961-1.0300536-.2014942-2.1029748-.2485244-3.0165136-.331663-6.4403254 1.6083872-12.85613899 3.2985756-12.94444849zm-17.5363458 22.33558699c2.2251287-.1795291 3.9906546-3.2185398 4.6465136-4.5168797l.168952-.3348821.0637471.3699149c.3145003 1.8269657 1.3039169 4.8956367 4.3988809 4.9194769l.025744.0003358c1.3385766 0 2.8573613-.8220954 4.3920827-2.3775289l.1125603-.1142763.0819128.1378926c1.0332148 1.7352984 2.4193789 2.6573436 3.8945882 2.5814579 2.1727492-.1129332 3.4910426-1.6598604 3.6072807-2.7331174.0298675-.2737706-.0425723-.5309762-.1980393-.7052448-.1954761-.2190389-.479106-.2437745-.6878441-.0439868l-.0988525.0946892c-.5060758.4881087-1.4483509 1.3964989-2.474879 1.4499994-1.2571097.0623427-2.1866799-.6929329-2.7875962-2.2507169l-.0250753-.0651408.042238-.0555153c3.4567173-4.5409436 5.8828944-11.4698253 5.6433972-16.11687472-.1104429-2.15087907-.733314-4.71498838-3.0720061-4.71498838-.0572832 0-.1154579.00156697-.1745242.00470089-.8959136.04644923-1.710806.47523716-2.4218308 1.27416388-2.1700744 2.43819273-3.305931 8.44010453-2.8936926 15.29075003.0855904 1.423473.331663 2.7531521.7315308 3.9522137l.0222892.0669317-.0455814.0537244c-1.2827422 1.5055146-2.5484332 2.3349971-3.5638168 2.3349971-2.4437856 0-2.3612041-4.1141704-2.1680684-7.5272373.0416808-.7355767.1037561-1.2040983-.1130061-1.4705937-.1551327-.1908336-.414133-.2848513-.7918231-.2878733l-.0441326-.0002239c-.8691665 0-1.0509348.1794171-1.4962726 1.4752946-.9254467 2.6930479-2.7524907 7.2109349-4.5903449 7.2109349-.5095307-.0039174-.8983654-.1791933-1.1642753-.5198956-.8915671-1.1429868-.2146448-3.9931786.3290997-6.2839649.0978495-.4119991.191687-.8073212.271928-1.1730949.1192471-.5431761.0826929-.9397294-.1087712-1.1791388-.1911297-.2388498-.5739463-.3362253-1.079242-.2957081-.7871424.0631262-1.290432.393979-1.5333841 1.8972551l-.0487018.3128327-.1831056-.2225086c-.3434763-.5095984-1.0140462-1.1171319-2.2578939-1.1171319-.1092169 0-.2218887.0042532-.3384611.0139908-1.3277664.1095754-2.8396414 1.0381122-3.9457419 2.4246497-1.2919923 1.6188955-1.9089568 3.6676982-1.7372186 5.7688821.0091385.1111424.0250753.2176958.041012.3242492l.0090272.0587611-.040232.0442107c-.7728773.8455998-1.5602425 1.2744997-2.3403638 1.2747235-1.2041729-.0095137-1.8951374-.908614-1.8951374-2.4056223 0-2.5200105 1.7004414-10.1167537 1.7004414-12.8668838 0-2.92663715-1.298679-4.52034934-3.5535638-4.53758592l-.033991-.00022385c-3.2923346 0-5.8591564 3.75264987-8.3146438 11.47262357-.2250093.7072594-.469633 1.5240943-.6793742 2.2300106l-.3447021 1.160783.1023073-1.2068965c.2280183-2.6893543.3847112-5.3058449.4657324-7.7771677.1221447-3.7310482-.3800305-6.13219347-1.5355015-7.3407688-.6232055-.65174423-1.4480166-.97252372-2.5217977-.98080623h-.0285302c-4.0292149 0-5.9594578 6.82445493-7.3647905 11.64028843-.42416306 1.4534691-1.26067594 4.7323369-1.81868554 6.9740998l.33065997-.5399303c.24807856-2.8226581.96601301-9.893126.9188714-13.72860101-.05048499-4.11495389-1.41491708-5.96005153-4.42417912-5.98322018h-.03711148c-1.60727269 0-2.72251176.80250834-3.37513892 1.47563041-1.04725707 1.08030831-1.70033001 2.65913435-1.6638872 4.02250314.02206628.82881092.52858788 1.5665142.91240754 1.5665142.25019603 0 .38850038-.335106.44868117-.53466979.931019-3.09116814 2.13552623-4.59377268 3.6822838-4.59377268.64159401.00503667 1.118471.19475098 1.47610087.58011169 1.2080735 1.30169764.98841364 4.81639319.58977167 11.19695012-.12849711 2.0561898-.27404545 4.3863741-.39708172 7.0366663-.02106327.4545309-.04925908.8941756-.0760061 1.3113233-.11757542 1.8410683-.21063274 3.2952089.48445531 3.4032174.90427198.1415862 1.49304064-.2269856 1.79394456-1.126086.44678659-1.3341561 1.44868519-4.9795811 3.38728649-11.6421912 1.860032-6.3929807 3.2653647-8.71913565 5.0634328-8.71913565 2.0771286 0 2.2320384 3.58207492 1.8511163 11.14065145-.0807983 1.6021066-.1895695 3.4172081-.2728195 5.3929233-.0117019.2772403-.0248525.54631-.0375573.8055303-.0799067 1.6349009-.1430965 2.9263014.3219672 3.4207898.1451025.153898.3425847.2301195.6038138.2319103.9003714 0 1.1710735-.7931065 1.6195318-2.107116.0793495-.2323581.1636025-.4796023.2573285-.7393822 3.0856025-8.5478891 5.3669-15.96431983 8.4289874-15.96431983.9187599 0 1.6327938.74923164 1.6327938 2.21053553 0 3.3727736-1.6418209 9.8906636-1.6418209 13.1946027 0 1.1832801.3391298 2.2467996.9802781 2.9934569.6578651.7663563 1.5782967 1.1756692 2.6616623 1.1840636h.0238494c1.0244106 0 2.0920623-.5000847 3.1735333-1.4858157l.1013043-.0924507.0815784.110135c.7120278.9623385 1.8611464 1.4786524 3.1017621 1.3822843 1.9030501-.1486376 3.4999583-1.850694 4.0938535-3.4550391l.1162381-.3141759.116238.3141759c.4404342 1.1907791 1.3955255 2.6261162 3.4360999 2.4595706zm49.0311005-24.5435702v-.00141069z"/><path d="m55.1175397 9.78012558c-.8501093 0-1.5369503.67267432-1.5431913 1.49935872-.0064638.8329522.6754736 1.5156998 1.5200106 1.5224154l.0121476.12379v-.12379c.8378502 0 1.5244684-.6722267 1.5307093-1.4987991.0064639-.8332879-.6753621-1.51625947-1.5196762-1.52297502m53.4459293 0c-.849998 0-1.536727.67267432-1.542968 1.49935872-.006687.8329522.67525 1.5156998 1.52001 1.5224154l.011925.12379v-.12379c.837962 0 1.52458-.6722267 1.530821-1.4987991.006352-.8332879-.675251-1.51625947-1.519788-1.52297502"/></g></g></svg>