<svg height="72" viewBox="0 0 158 72" width="158" xmlns="http://www.w3.org/2000/svg"><g fill="none" fill-rule="evenodd"><path d="m0 0h158v72h-158z"/><g transform="translate(0 21)"><g fill="#000"><path d="m38.86 6.47v7.816h7.629v-7.816h4.62v20.261h-4.62v-8.449h-7.629v8.449h-4.621v-20.261z"/><path d="m60.4784253 27.0597974c-4.3469046 0-7.6910046-2.8243636-7.6910046-7.5726234 0-4.7496623 3.1616-7.7858182 7.9633362-7.7858182 4.5294046 0 7.5690227 3.095065 7.5690227 7.545039 0 5.3485714-3.858977 7.8134026-7.8120408 7.8134026zm.0898316-3.2745974c1.825473 0 2.9502593-1.7742857 2.9502593-4.4195844 0-2.1656104-.8534003-4.3887273-2.9502593-4.3887273-2.188109 0-3.0386726 2.2231169-3.0386726 4.4195844 0 2.4938182 1.0642683 4.3887273 3.0084135 4.3887273zm16.9913662 3.2745974c-4.3469045 0-7.6891134-2.8243636-7.6891134-7.5726234 0-4.7496623 3.1606544-7.7858182 7.963809-7.7858182 4.5294046 0 7.5690228 3.095065 7.5690228 7.545039 0 5.3485714-3.8618139 7.8134026-7.8134593 7.8134026zm.09125-3.2745974c1.8250002 0 2.9497866-1.7742857 2.9497866-4.4195844 0-2.1656104-.8534004-4.3887273-2.9497866-4.3887273-2.1890546 0-3.0386725 2.2231169-3.0386725 4.4195844 0 2.4938182 1.0628498 4.3887273 3.0093591 4.3887273zm9.4409245-8.3874857v6.0419221c0 2.073974.4264637 3.4868571 1.2775001 4.3564675.7593135.7536623 2.0051362 1.2637403 3.4949226 1.2637403 1.2765545 0 2.4003953-.1804676 2.9791-.3908572l-.0316774-3.4569351c-.4240998.0916364-.7285817.121091-1.3663862.121091-1.3673317 0-1.8240546-.8121039-1.8240546-2.5859221v-5.3495065h3.3143138v-3.3667013h-3.3143138v-2.84306495l-.0174935.00981818v-1.62093506c-2.4897541 0-4.5086014 1.99028571-4.5086014 4.45418183h-.0033096zm47.3245714 0v6.0419221c0 2.073974.426463 3.4868571 1.277027 4.3564675.759786.7536623 2.004663 1.2637403 3.49445 1.2637403 1.277027 0 2.401813-.1804676 2.980518-.3908572l-.031677-3.4569351c-.424573.0916364-.729528.121091-1.367805.121091-1.366859 0-1.823109-.8121039-1.823109-2.5859221v-5.3495065h3.313368v-3.3667013h-3.313368v-2.84306495l-.017493.00981818v-1.62093506c-2.489282 0-4.508602 1.99028571-4.508602 4.45418183h-.003309zm-37.0500096 7.3634026c.8510364.511013 2.6131544 1.0818701 3.9833226 1.0818701 1.397118 0 1.974877-.4502338 1.974877-1.2010909 0-.7826493-.45625-1.1431169-2.158322-1.7144416-3.1006094-.9897662-4.2873323-2.6752207-4.2561276-4.3877922 0-2.7654545 2.3701362-4.8394285 6.0494496-4.8394285 1.732805 0 3.251432.4207792 4.163459.871948l-.789099 3.1259221c-.669955-.3305455-1.977242-.8116364-3.223537-.8116364-1.123841 0-1.7607.4502338-1.7607 1.1716364 0 .7209351.576814 1.0828052 2.400396 1.7153766 2.825913.9294546 3.981904 2.3713247 4.012163 4.507013 0 2.7654546-2.15785 4.7791169-6.412559 4.7791169-1.9465089 0-3.6793135-.4511688-4.8040999-1.0519481zm26.1456336-.7501559c0 1.9234286.063355 3.4854546.122927 4.7192728h-4.012636l-.212759-2.0744416h-.09125c-.577759.9018701-1.974877 2.404052-4.649968 2.404052-3.041037 0-5.229619-1.8631169-5.229619-6.4028572v-8.625974h4.620655v7.9064415c0 2.1333507.700214 3.4242078 2.340823 3.4242078 1.275609 0 2.035395-.8710129 2.309145-1.5938181.122927-.2692987.1825-.5989091.1825-.9907013v-8.7461299h4.620182z"/><path d="m126.673 26.731h4.622v-14.699h-4.622z"/><path d="m128.954701 10.1071636c-1.550304 0-2.553582-1.08233763-2.553582-2.43490905 0-1.38389611 1.033537-2.4349091 2.613155-2.4349091 1.581036 0 2.554527 1.05101299 2.583841 2.4349091 0 1.35257142-1.002805 2.43490905-2.6141 2.43490905zm19.125718 10.7002754c.152241 1.9248311 2.035868 2.8252987 4.195137 2.8252987 1.580563 0 2.85759-.2089871 4.103886-.6302338l.608964 3.0964675c-1.52241.6311689-3.376723.9308572-5.382805.9308572-5.045227 0-7.932605-2.8846754-7.932605-7.5151169 0-3.7271688 2.369664-7.8456623 7.509451-7.8456623 4.801736 0 6.624372 3.6995844 6.624372 7.3360519 0 .7793766-.090777 1.4727273-.150823 1.8322597zm5.441432-3.1263896c0-1.0809351-.486509-2.9758442-2.584786-2.9758442-1.974878 0-2.765396 1.7733506-2.886432 2.9758442zm-135.5936356-15.61918446c-1.7521893-1.00612988-3.7838022-1.58727273-5.9534721-1.59428572-2.19567374-.00514286-4.25234492.57693507-6.02344612 1.59428572-1.75313487-.99677923-3.78427496-1.5681039-5.95110806-1.56202598v11.80893504c-.03735104 13.0488312 10.69469008 23.58 23.87866158 23.6174026v-23.6174026-11.80893504c-2.1658875-.00607792-4.1975004.56524675-5.9506353 1.56202598"/></g><path d="m17.0576525 13.2091481c-1.8855183-.0046754-3.409819-1.5204156-3.4046182-3.38540265.0014184-.34690909.0557902-.68306493.1555505-.99771428.2647669.58815584.8586011 1.00051948 1.5526686 1.00238961.9418135.00280519 1.708219-.75038961 1.710583-1.68218182.0018912-.68587013-.4113342-1.27496104-1.0056413-1.54051948.3196115-.09724675.6590804-.14867532 1.0108421-.14774026 1.8845727.00561039 3.4102918 1.52088312 3.4046182 3.3854026-.0061464 1.86498698-1.5394302 3.37184418-3.4240029 3.36576628m-10.24174967-.0285195c-1.88457271-.0051429-3.41029176-1.5204156-3.40414539-3.38493509.00472798-1.86498702 1.53990299-3.37231169 3.42447571-3.3667013.35128889.00093506.68933944.05423376 1.00895087.15288311-.59525265.26228572-1.01084207.84857143-1.01320606 1.5349091-.00236399.9317922.75836795 1.69012987 1.70065431 1.69293506.69359462.0014026 1.28932006-.40675325 1.55881493-.99397403.0969236.31558442.1498769.65127273.1484585.99864936-.0061463 1.86451949-1.53848456 3.37231169-3.42400287 3.36623379m10.26538957-8.41090912c-2.6727269-.00748052-4.8717103 2.01506494-5.1100005 4.59958442l-.0231671-.03132468-.0222215.03132468c-.2241062-2.58592208-2.41126965-4.62109091-5.08494217-4.62857143-2.82827747-.00841559-5.12654841 2.25303896-5.13411317 5.04935065-.00898317 2.79724678 2.27652223 5.07085718 5.10479969 5.07833768 1.00564129.0032727 1.94225407-.2851948 2.73466347-.7789091l2.38053778 2.3675844 2.3951945-2.3535584c.7905182.4974545 1.7238214.7905974 2.7299355.7938701 2.8296959.0084156 5.127494-2.253039 5.1364772-5.04888312.0075647-2.79677923-2.2774679-5.07132468-5.1071637-5.0788052" fill="#fff"/></g></g></svg>